<?xml version="1.0" encoding="utf-8"?>
<!-- Generator: Adobe Illustrator 28.3.0, SVG Export Plug-In . SVG Version: 6.00 Build 0)  -->
<svg version="1.1" id="Capa_1" xmlns="http://www.w3.org/2000/svg" xmlns:xlink="http://www.w3.org/1999/xlink" x="0px" y="0px"
	 viewBox="0 0 80 50" style="enable-background:new 0 0 80 50;" xml:space="preserve">
<style type="text/css">
	.st0{fill-rule:evenodd;clip-rule:evenodd;fill:#171412;}
	.st1{fill-rule:evenodd;clip-rule:evenodd;fill:#DBE06B;}
	.st2{fill-rule:evenodd;clip-rule:evenodd;fill:#ADAB2E;}
	.st3{fill-rule:evenodd;clip-rule:evenodd;fill:#664A3B;}
	.st4{fill-rule:evenodd;clip-rule:evenodd;fill:#CCC9C7;}
	.st5{fill-rule:evenodd;clip-rule:evenodd;fill:#FFFFFF;}
</style>
<g>
	<path class="st0" d="M43,45.6c-0.1,0-0.2,0.1-0.4,0.1c-0.4,0.1-0.9,0.1-1.2,0.4c-0.1,0-0.1,0-0.2,0c-0.2,0-0.4,0-0.5,0.2
		c-0.2,0-0.5,0-0.7-0.1c-0.1-0.1-0.2-0.2-0.2-0.3c0-0.1,0-0.1,0-0.2c0.1-0.3,0.5-0.7-0.2-0.9c0,0,0-0.1,0-0.2c0.1,0,0.1,0,0.2,0
		c0.2,0,0.3,0,0.4-0.2l0.1-0.3c0.3-0.4,0.3-0.5-0.1-0.7C40,43.3,40,43.2,40,43.1l0,0c0.1,0,0.2-0.1,0.2-0.2c0,0,0.1,0,0.1,0
		c0.3,0,0.6,0,0.9-0.2c0.3,0,0.7,0,1,0c0.5,0.1,1.1-0.1,1.6,0c0,0.1,0,0.1,0,0.2c-0.1,0-0.1,0.1-0.2,0.1c-0.1,0-0.3,0-0.3,0.1
		l-0.7,0.1c-0.2,0-0.4-0.1-0.5,0.1c-0.1,0-0.1,0-0.2,0c-0.7-0.1-0.9,0.1-0.9,0.7c0,0.3,0.1,0.3,0.3,0.3c0.3-0.1,0.5-0.1,0.8-0.2
		c0.1,0,0.2,0,0.3,0c0.3,0,0.6,0,0.9-0.1c0.4,0,0.7-0.1,1.1,0c0,0.1,0,0.1,0,0.2c0,0,0,0.1,0,0.1c-0.2,0-0.4,0.1-0.6,0.1
		c-0.2,0-0.3,0-0.4,0.1c-0.1,0-0.3,0-0.4,0.1c-0.1-0.1-0.2-0.1-0.4,0c-0.1,0-0.1,0-0.2,0c-0.4-0.1-0.7,0-1.1,0.1
		c-0.3,0-0.6,0-0.5,0.4c-0.1,0.1-0.2,0.3-0.1,0.5c0.1,0.1,0.3,0.1,0.4,0c0.1,0,0.1,0,0.2,0c0.1,0,0.1,0,0.2,0c0.1,0,0.1,0,0.2,0
		c0.2,0,0.4,0,0.5-0.2c0.1,0,0.2,0,0.3,0c0.2,0,0.3,0,0.4-0.1c0.1,0,0.2,0,0.3,0c0.3,0.1,0.5-0.1,0.7-0.2c0,0,0.1,0,0.1,0
		c0.2,0,0.3,0,0.4-0.1c0.1,0,0.2,0,0.3,0c0.2,0.1,0.2,0.1,0,0.3c-0.4,0.3-0.9,0.3-1.2,0.6c-0.1,0-0.1,0-0.2,0
		C43.2,45.5,43.1,45.5,43,45.6z"/>
	<path class="st0" d="M34.1,43.5c-0.4,0-0.6,0-0.8,0.3c-0.1,0.3-0.2,0.6-0.3,0.9c-0.1,0.2,0,0.3,0.3,0.2c0.4-0.1,0.7-0.3,1-0.5
		c0.2-0.2,0.6-0.4,0.5-0.7C34.7,43.5,34.3,43.5,34.1,43.5z M33.4,43.2c0.1,0,0.2,0,0.3-0.1c0.2,0.1,0.4,0.1,0.6,0
		c0.1,0,0.1,0,0.2,0.1c0.1,0.2,0.2,0.1,0.4,0.1c0.2,0,0.4,0.1,0.5,0.3c0,0.1,0,0.2,0.1,0.3c-0.1,0.3-0.3,0.5-0.5,0.7
		c-0.1,0.1-0.2,0.1-0.2,0.2c0.1,0.1,0.2,0.1,0.3,0.1c0.3,0,0.6,0,1,0c0.4,0.1,0.4,0.2,0.2,0.6c0-0.1-0.1-0.2-0.3-0.2
		c-0.7-0.1-1.3,0-2,0.1c-0.1-0.1-0.2-0.1-0.2,0.1c-0.9,0.2-1.1,0.4-1.1,1.2c0,0.1,0,0.2,0,0.3c-0.1,0-0.2,0.1-0.3,0.1
		c-0.2-0.1-0.3-0.4-0.3-0.6c0.1-0.3,0.1-0.6,0-0.9c0-0.2,0.1-0.4,0.1-0.6c0-0.1,0-0.2,0.1-0.2c0.2-0.1,0.1-0.4,0.2-0.6
		c0.2-0.3,0-0.4-0.2-0.3c-0.1,0-0.2,0-0.3,0c-0.1-0.1-0.1-0.1-0.2,0c-0.1,0-0.2,0-0.3,0c0-0.1-0.1-0.2-0.1-0.3
		c0.2-0.1,0.4,0,0.6-0.2c0.1,0,0.3,0,0.4,0c0.2,0.1,0.4,0,0.7,0C33.1,43.3,33.3,43.4,33.4,43.2z"/>
	<path class="st0" d="M33.2,47.5c-0.2,0-0.4,0-0.1-0.3c0.7-0.5,1.5-0.9,2.3-1.4c0.2-0.2,0.6-0.2,0.7-0.6c0.2,0,0.2,0.1,0.3,0.2
		c0,0.1,0,0.1,0,0.2l0,0c-0.2,0.1-0.4,0.2-0.5,0.4c-0.1,0.1-0.2,0.1-0.3,0.2c-0.2,0.1-0.4,0.2-0.6,0.4c-0.2,0-0.3,0.2-0.4,0.2
		c-0.3,0.1-0.7,0.3-1,0.5C33.3,47.4,33.3,47.5,33.2,47.5z"/>
	<path class="st0" d="M37.2,47.6c0.3,0,0.5,0.1,0.5,0.2c0.1,0.2-0.1,0.3-0.2,0.4c-0.3,0.2-0.6,0.3-0.9,0.1c-0.2-0.1-0.2-0.2-0.1-0.3
		C36.7,47.7,37,47.6,37.2,47.6z"/>
	<path class="st0" d="M45.7,46.7c0.2,0,0.4,0,0.5,0.2c0.1,0.2-0.1,0.2-0.2,0.4c-0.2,0.3-0.5,0.2-0.8,0.1c-0.3-0.1-0.2-0.3-0.1-0.4
		C45.2,46.9,45.5,46.8,45.7,46.7z"/>
	<path class="st0" d="M44.7,44.1c-0.1,0-0.2,0-0.2,0c0-0.1,0-0.1,0-0.2c0.1-0.1,0.2,0,0.3,0C44.7,44,44.7,44,44.7,44.1L44.7,44.1z"
		/>
	<path class="st0" d="M43.9,42.7c0.2,0,0.2,0.1,0.2,0.2c-0.1,0-0.1,0-0.2,0C43.9,42.8,43.9,42.8,43.9,42.7z"/>
	<path class="st0" d="M32.7,46.8c0.1,0.1,0,0.2-0.1,0.2c-0.1,0-0.2,0-0.2-0.1C32.5,46.9,32.6,46.9,32.7,46.8z"/>
	<path class="st0" d="M11.4,40.3L11.4,40.3L11.4,40.3L11.4,40.3z M11.6,40.1C11.6,40.1,11.7,40.1,11.6,40.1c0.5-0.4,0.9-0.8,1.2-1.2
		c0,0,0-0.1,0-0.1c-0.1,0-0.1,0-0.2,0c-0.4,0.3-0.8,0.7-1.1,1.2C11.5,40,11.5,40.1,11.6,40.1z M19.9,37.5c-0.4,0-0.7,0.3-1.1,0.3
		c-0.6,0.1-1.1,0.3-1.4,0.9c-0.1,0.3-0.3,0.5-0.4,0.7c-0.2,0.3-0.2,0.5,0.2,0.6c0.1,0,0.2,0.2,0.3,0.3c0.3,0.3,0.4,0.3,0.6,0
		c0.2-0.4,0.5-0.8,0.8-1.2C19.2,38.5,19.6,38,19.9,37.5z M15.2,44.1c0,0,0.1,0,0.3-0.1c0.5-0.2,1-0.5,1.7-0.5c0.2,0,0.2-0.1,0.1-0.2
		c-0.1-0.7,0.1-1.3,0.3-1.9c0-0.1,0.1-0.2,0-0.2c-0.1-0.1-0.2,0-0.3,0c-0.4,0.2-0.8,0.4-1.2,0.7c-0.7,0.4-1.1,1.1-1.3,1.9
		C14.8,43.9,14.8,44.1,15.2,44.1z M17.3,44.9C17.3,44.9,17.3,44.9,17.3,44.9c-0.5,0.2-1,0.3-1.4,0.5c-0.9,0.3-1.9,0.6-2.8,0l0,0l0,0
		c-1.7-1.3,1.9-6.1,2-6.5c-0.7,0.7-1.2,1.4-1.9,2c-0.8,0.6-1.5,1.3-2.3,1.9l0,0l0,0c-0.5,0.3-0.5,0.3-0.2,0.8
		c0.3,0.5,0.9,2.4,0.9,2.5c0.2,1-0.1,1.6-1.1,2c-0.5,0.2-0.8,0-0.9-0.5c0-0.3,0-0.6,0-0.9c-0.1-0.6-0.1-1.2-0.5-1.8
		c-0.1,0.3-0.2,0.4-0.3,0.6c-0.3,0.7-0.9,1-1.7,0.9c-0.2,0-0.3,0-0.4,0.2c-0.3,0.6-0.6,1.3-0.8,1.9c-0.2,0.5-0.8,1-1.3,1
		c-0.3,0-0.6-0.1-0.7-0.4c-0.1-0.2-0.2-0.2-0.4-0.2c-0.3,0.1-1.2,0.4-1.3,0.4c-0.8,0.2-1.9-0.3-2-1.3c-0.1-0.9,0.2-1.7,0.6-2.5
		c1.4-3.1,6.1-7.2,6.9-7.5c0.1,0,0.2,0,0.4,0c0.4,0.1,0.6,0.5,0.8,0.7c0.2,0.2,0.2,0.5-0.1,0.7c-0.4,0.3-1.2,0.8-1.2,0.8
		c-1.9,1.4-3.6,3-4.8,5c-0.4,0.6-0.7,1.3-0.7,2c0,0.3,0.1,0.4,0.4,0.4c1.1-0.3,2-0.7,2.5-1.7c0.1-0.1,0.2-0.2,0.1-0.3
		c-0.1-0.1-0.2,0-0.4,0c-0.4,0.1-0.8,0-0.9-0.3c-0.3-0.6,0-1.5,0.7-1.7c0.7-0.2,1.3-0.6,1.9-1.1c0.5-0.2,1-0.6,1.4,0
		c0.1,0.1,0.2,0.1,0.2,0c0.4-0.6,1-1.2,1-2c0-0.5,0.2-1,0.5-1.4c0.3-0.3,0.4-0.8,0.8-0.9c0.7-0.1,1.1-0.5,1.6-0.9
		c0.7-0.5,1.3-1.1,2-1.4c0.6-0.2,0.9-0.1,1.4,0.3c0.3,0.3,0.4,0.6,0.4,1c0.3-0.2,0.5-0.4,0.7-0.6c1-0.7,2.2-0.8,3.4-0.6
		c0.2,0,0.3,0.1,0.4,0.3c0.1,0.2,0.3,0.3,0.5,0.1c0.8-0.9,1.7-1.8,2.6-2.6c0.2-0.1,0.4-0.3,0.6-0.4c0.4-0.3,0.9-0.5,1.4-0.2
		c0.1,0.2,0.3,0.3,0.5,0.5c0.3,0.3,0.3,0.5-0.1,0.8c-0.3,0.2-0.5,0.3-0.7,0.6c-0.6,0.4-1.2,0.8-1.7,1.4l0,0c-0.1,0-0.1,0.1-0.2,0.1
		c-0.9,0.8-1.8,1.7-2.5,2.6c-0.6,0.8-1.2,1.7-1.4,2.7c-0.2,0.9-0.1,1,0.8,0.7c0.8-0.3,1.5-0.8,2-1.5c0.1-0.1,0.2-0.3,0.1-0.4
		c-0.1-0.1-0.2,0-0.4,0c-0.4,0.1-0.7,0-0.9-0.3c-0.4-0.6,0-1.6,0.8-1.8c0.4-0.1,0.8-0.3,1.1-0.5c0.4-0.3,0.8-0.6,1.3-0.8
		c0.3-0.1,0.5,0,0.7,0.2c0.2,0.3,0.4,0.4,0.5,0.8c0.2-0.5,0.4-0.9,0.5-1.2c0.2-0.3,0.3-0.7,0.7-0.9c0.4-0.1,0.6-0.4,0.8-0.8
		c0.9-1.5,1.7-3,2.7-4.4l0,0l0,0c0.1-0.1,0.2-0.2,0.4-0.2c0.3-0.2,0.7-0.3,1-0.2c0.3,0.1,0.6,0.7,0.5,1c-0.2,0.8-0.5,1.5-0.7,2.2
		c-0.2,0.7-0.5,1.3-0.7,2l0,0.2c0,0-0.1,0.1-0.1,0.1c-0.3,0.8-0.6,1.6-0.9,2.5c-0.3,0.9-0.5,1.8,0.1,2.7c0,0.1,0,0.1,0,0.2
		c-0.3,0.4-1.2,0.7-1.7,0.4c-0.2-0.1-0.3-0.3-0.5-0.5c0-0.1,0-0.1,0-0.2c0-0.4-0.2-0.8,0-1.2c0.1-0.2,0.1-0.3,0.1-0.5
		c0-0.1,0-0.1,0-0.2c-0.1-0.2-0.2-0.3-0.3-0.1c-0.2,0.2-0.4,0.4-0.5,0.7c-0.3,0.7-0.6,1.5-1.1,2.2l0,0c-0.2,0.1-0.4,0.2-0.5,0.3
		c-0.2,0.1-0.5,0.3-0.8,0.3c-0.3,0-0.4-0.3-0.5-0.5c-0.2,0.1-0.2,0.3-0.3,0.5c-0.2,0.6-0.3,1.2-1,1.5c-0.6,0.3-1,0.3-1.3-0.3
		c-0.1-0.2-0.2-0.2-0.5-0.1c-0.6,0.2-1.2,0.5-1.8,0.4C18.1,44.3,17.7,44.6,17.3,44.9z"/>
	<path class="st0" d="M71.5,12.1c0.2,0.3,0.4,0.5,0.5,0.7c0.1,0.2,0.4,0.5,0.3,0.8c0,0.4,0.3,0.5,0.5,0.5c0.3,0,0.3-0.3,0.3-0.5
		C73.1,12.9,72.4,12,71.5,12.1z M73.4,0.6c1.1,0,2.2-0.1,3.2-0.1c1,0,2.1,0,3.1,0c0,1.7,0,3.3,0,5c-0.3,0-0.3,0.2-0.4,0.4
		c-0.6,1.1-1.2,2.2-1.8,3.3c-1.2,2-2.6,3.9-3.8,5.9c-0.1,0.1-0.2,0.2-0.3,0.3c-0.8,0.6-1.7,0.5-2.7,0.4c-0.2,0-0.2-0.2-0.1-0.3
		c0.1-0.2,0.3-0.5,0.4-0.7c0.1-0.3,0.4-0.5,0.2-0.8c-0.3-0.6-0.6-1.2-1.2-1.6c-0.8-1-1.9-1.3-3.1-1.1c-1,0.1-1.8,0.5-2,1.6
		c-0.1,0-0.1,0-0.2,0c-0.5-0.7-1-1.4-0.8-2.3c0.1-0.5,0.3-1,0.5-1.6c0.7-2.5,1.6-5,2.6-7.4c0.5-1.2,0.1-1,1.5-1
		c0.9,0,1.8-0.1,2.7,0.1c0,0.1,0,0.2-0.1,0.3c-0.3,0.5-0.6,1.1-0.8,1.6c-0.3,0.8-0.7,1.5-1,2.3c-0.4,0.9-0.7,1.8-1.1,2.7
		c0,0.1-0.1,0.2,0,0.3c0.3,0.4,1.4,0.4,1.6-0.1c0.6-1.1,1-2.2,1.6-3.3c0.4-0.8,0.8-1.7,1.2-2.6C72.9,1.5,73.1,1,73.4,0.6z"/>
	<path class="st0" d="M47.6,35.6c0-0.1,0-0.1,0-0.2c0.3-0.5,0.8-0.8,1.3-1c0.5-0.2,0.8-0.6,1-1c0.1-0.2,0.2-0.5,0.3-0.7
		c0.4-1,1.1-3.1,1-3.2c-0.1-0.1-0.2,0-0.3,0.1c-0.2,0.1-0.5,0.2-0.7,0.4c-0.1,0-0.2,0-0.4,0c-0.5-0.4-0.5-0.4-0.7,0.1
		c-0.7,1.8-1.5,3.7-2.4,5.4c-0.3,0.6-0.6,1.2-0.8,1.8l0,0.2c-0.3,0.9-1,1.3-1.9,1.4c-0.1,0-0.1,0-0.2,0c-0.4-0.4-0.3-0.8-0.1-1.2
		c0.1-0.4,1.1-2.4,1.3-3c-0.4,0.1-0.6,0.4-0.8,0.7c-0.7,0.8-0.8,2-1.9,2.5c0,0,0,0,0,0c-0.8,0.2-1,0.1-1.1-0.6c0-0.1,0-0.1,0-0.2
		c0.3-0.7,0.6-1.3,1-2c0.3-0.5,0.3-0.5-0.2-0.9c-0.7-0.5-0.9-1.2-0.6-2c0.1-0.3,0.3-0.6,0.7-0.6c0.3,0,0.6,0.1,0.7,0.4
		c0.1,0.2,0.2,0.3,0.4,0.3l0,0c0,0.2,0.2,0.3,0.3,0.4c0,0,1.5-3,1.9-3.7c0.3-0.4,0.8-0.5,1.1-0.2c0.4,0.4,0.6,0.9,0.3,1.5
		c-0.3,0.1-0.1,0.3-0.1,0.4c-0.5,0.5-0.7,1.2-1,1.8c0.3-0.1,0.5-0.2,0.6-0.4c0.3-0.4,0.3-0.9,0.6-1.3c0-0.1,1.2-3.6,1.6-4.3
		c0.4-0.7,1.2-0.7,1.7-0.1c0.2,0.2,0.2,0.4,0.1,0.7c-0.1,0.3-0.2,0.5-0.2,0.8c0.1-0.1,0.3-0.1,0.4-0.2c1.1-0.6,2.1-1.2,3.3-1.6
		c0.6-0.2,1.2-0.4,1.7,0.3c0.1,0.1,0.2,0.2,0.3,0.2c0,0.1,0,0.2,0,0.3c-0.5,0.3-1,0.6-1.5,0.8c-0.2,0.1-0.4,0.1-0.5,0.3
		c-0.2,0-0.2,0.2-0.2,0.3c-0.2,0.9-1.7,4.7-1.6,4.8c0.1,0.1,0.2,0,0.2,0c0.3-0.1,0.5-0.3,0.9-0.4c0.5-0.1,1,0.2,1.2,0.7
		c0.1,0.3-0.1,0.7-0.5,1c-0.5,0.4-1.2,0.4-1.8,0.7c-1,0.4-1.9,1.1-2.8,1.5c-0.8,0.4-1,0.4-1.6-0.1c0-0.1,0-0.1,0-0.2
		C47.6,36,47.6,35.8,47.6,35.6z"/>
	<path class="st1" d="M53.1,45.5c0.3,0.1,0.4-0.2,0.4-0.4c0-0.4,0.2-0.8,0-1.2c-0.1-0.2,0.3-0.4,0-0.6c0.1-0.4,0.1-0.6,0.2-0.7
		c0-0.1,0-0.1,0.1-0.2c0,0,0-0.1,0-0.1c0.1-0.4,0.3-0.8,0.4-1.2c0,0,0-0.1,0-0.1c0.1-0.7,0.2-1.4,0.3-1.8c0.2-1.1,1.4-8.5,2.7-9.5
		c0-0.1,0-0.2,0.1-0.3l0,0l0,0c0,0,0-0.1,0-0.1c0,0,0,0,0,0l0,0c0,0,0-0.1,0-0.1c0,0,0,0,0,0l0,0l0,0c0,0,0,0,0-0.1c0,0,0,0,0-0.1
		l0,0l0-0.1c0-0.1,0.1-0.3,0.2-0.4l0,0c0-0.1,0.1-0.1,0.1-0.1c0-0.1,0.1-0.1,0.1-0.1c0,0,0,0,0,0c0,0,0.1-0.2,0.1-0.2
		c0.1-0.1,0.2-0.4,0.3-0.6l0,0c0,0,0-0.1,0-0.1l0,0l0,0l0,0l0,0c0,0,0-0.1,0-0.1l0,0c0,0,0-0.1,0.1-0.1c0,0,0,0,0-0.1
		c0,0,0.1-0.1,0.1-0.2c0,0,0,0,0.1-0.1c0.1-0.1,0.2-0.3,0.2-0.4c0.2-0.3,0.3-0.6,0.5-0.8c-0.1-0.1,0-0.3,0.1-0.4c0,0,0,0,0.1-0.1
		l0,0c0.1-0.1,0.2-0.3,0.2-0.6c0-0.1,0-0.1,0.1-0.2c0,0,0,0,0,0l0,0l0,0c0-0.1,0-0.1,0.1-0.2l0,0l0-0.1c0,0,0-0.1,0.1-0.1
		c0,0,0,0,0,0l0,0c0,0,0-0.1,0.1-0.1l0,0l0-0.1l0,0c0,0,0,0,0,0l0,0l0,0l0-0.1l0-0.1c0,0,0-0.1,0.1-0.1l0,0c0-0.1,0.1-0.1,0.1-0.2
		l0,0l0,0c0,0,0,0,0-0.1c0,0,0,0,0-0.1l0,0l0,0c0,0,0-0.1,0.1-0.1c0.1-0.1,0.2-0.2,0.3-0.3c0,0,0.1-0.1,0.1-0.1c0-0.1,0-0.1,0-0.2
		c0-0.1,0-0.1,0-0.2c0.2-0.1,3.5-7.7,3.6-8.6c0,0,0,0,0,0c0.1,0,0.1,0,0.2,0c0.2,0,0.2-0.2,0.3-0.3c0.2-0.4,0.4-0.8,0.9-0.9
		c0.2,0,0.3-0.2,0.7-0.3c0.9-0.1,1.2,0,1.9,0.3c0.3,0.1,0.5,0.2,0.3,0.5c-0.4,0.8-1,1.6-1.4,2.4c-0.8,1.5-1.6,3-2.4,4.5
		c-1.2,2.2-2.3,4.4-3.5,6.6c0,0.1,0,0.1,0,0.2L61.9,26c0.1,0,0.1,0.1,0.1,0.2l0,0.1c-0.1,0.2-0.2,0.5-0.3,0.7l0.1,0c0,0,0,0,0.1,0
		c0.2,0.1,0.3,0.4,0.2,0.6c0,0.3-0.2,0.5-0.5,0.6c-0.1,0-0.3,0-0.4,0l-0.1,0l-0.1,0.1c-0.1,0.1-0.2,0.2-0.3,0.2l0,0
		c-0.2,0.5-0.4,1-0.6,1.5c-0.8,1.9-1.5,3.8-2.3,5.7c-0.6,1.4-1.1,2.9-1.8,4.2c-0.3,0.6-0.6,1.3-0.9,2c0.1,0.1,0.1,0.2,0,0.3l0,0
		l0,0.1c-0.1,0.2-0.1,0.3-0.2,0.5c-0.1,0.2-0.1,0.3-0.2,0.5c0,0.1-0.1,0.2-0.1,0.3c0,0,0,0.1-0.1,0.1c-0.1,0.3-0.7,1.6-0.7,1.6
		C53.4,45.8,53.2,45.8,53.1,45.5z M58.2,30.3c0.4-0.3,0.6-0.8,0.6-1.3c0-0.1,0-0.3-0.2-0.4c-0.1-0.1-0.3,0-0.4,0.1
		c-0.4,0.4-0.6,0.8-0.6,1.4c0,0.1,0,0.2,0.1,0.3C58,30.5,58.1,30.4,58.2,30.3z M61.4,27.8c0.1,0,0.1-0.1,0.1-0.2c0-0.1,0-0.2,0-0.2
		l0,0c0,0-0.1,0-0.1,0.1c0,0,0,0-0.1,0.1l0,0l0,0c0,0.1,0,0.1-0.1,0.2c0,0,0,0,0,0.1l0,0C61.2,27.9,61.3,27.9,61.4,27.8z"/>
	<path class="st0" d="M34.9,38.7c-0.2,0.5-0.3,1.1-0.9,1.4c-0.2,0.1-0.4,0.1-0.5,0.3l0,0c0,0,0,0,0,0c-0.8,0.3-1,0.1-1.1-0.7
		c0-0.3,0-0.6-0.1-1c-0.4,0.6-0.8,1.1-1.1,1.7l0,0l0,0c-0.2,0.1-0.4,0.2-0.6,0.3c-0.3,0.2-0.6,0.2-0.9,0c-0.3-0.2-0.3-0.5-0.2-0.9
		c0-0.1,0.1-0.2,0.1-0.3c0.9-1.7,1.9-3.4,2.4-5.3c0.2-0.6,0.7-0.7,1.1-0.2c0.3,0.3,0.6,0.5,0.7,0.9c0.1,0.2,0.2,0.3,0.3,0
		c0.3-0.7,1.3-3,1.5-3.4c0.3-0.6,0.6-1.2,1.1-1.6c0.2-0.2,0.5-0.3,0.7-0.1c0.3,0.2,0.6,0.5,0.6,0.8c0.1,0.4,0.2,0.3,0.4,0.2
		c0.9-0.5,1.8-1.1,2.7-1.7c0.9-0.6,1.7-1.1,2.7-1.4c0.6-0.2,0.9-0.1,1.4,0.6c0.3,0.3,0,0.6-0.1,0.8c-0.1,0.3-0.4,0.4-0.6,0.6
		c-0.3,0.2-0.6,0.3-0.9,0.5l-0.3,0c-0.2-0.2-0.4-0.4-0.7-0.1c0,0,0,0,0,0c-0.7,0.3-1.4,0.7-1.5,1.6c0,0.1-2.1,5.4-2.5,6.4
		c-0.2,0.4-0.2,0.9-0.7,1.2c-0.3,0.1-1.1,0.2-1.3,0c-0.3-0.3-0.2-0.7-0.1-1c0.4-1.3,2.1-4.9,2.3-5.5c0-0.1,0.1-0.2,0-0.3
		c-0.1-0.1-0.2,0-0.3,0.1c-0.4,0.2-0.7,0.5-1,0.9c0,0,0,0,0,0c-0.4,0.2-0.9,0.3-1.1,0.7C36.1,34.7,35,38.6,34.9,38.7z"/>
	<path class="st2" d="M54.1,44.2c4-12.3,13.7-30.9,15-32.1c0.2-0.2,0.1-0.4-0.2-0.5c-1.4-0.5-2.5,0-2.6,0c-0.5,0.1-0.8,0.5-0.9,0.9
		c-0.1,0.1-0.1,0.3-0.3,0.3c0.2-1.1,1-1.5,2-1.6c1.2-0.2,2.3,0.1,3.1,1.1c-0.1,0.2,0.1,0.4,0,0.6c-0.2-0.2-0.3-0.2-0.5,0.1
		c-0.7,1.6-1.5,3.1-2.2,4.6c-0.8,1.6-1.5,3.3-2.3,5c-0.8,1.7-1.6,3.4-2.4,5c-0.9,2-1.9,4-2.9,5.9c-0.1,0.2-0.1,0.3,0,0.5
		c0,0.4-0.5,0.7-0.6,1.1c-0.1,0.2-0.1,0.5-0.3,0.7c-0.3,0.3-0.4,0.6-0.5,1c-0.1,0.2-0.3,0.4-0.3,0.8c0.4-0.5,1.1-1.2,1.1-1.2
		s-0.4,0.5-0.5,0.7C58.6,37.5,56.7,39.8,54.1,44.2z"/>
	<path class="st3" d="M70.2,12.9c0.1-0.2-0.1-0.4,0-0.6c0.6,0.4,0.9,1,1.2,1.6c0.1,0.3-0.1,0.6-0.2,0.8c-0.1,0.3-0.3,0.5-0.4,0.7
		c-0.1,0.1-0.1,0.3,0.1,0.3c0.9,0.1,1.8,0.2,2.7-0.4c0.1-0.1,0.2-0.2,0.3-0.3c1.2-2,2.6-3.9,3.8-5.9c0.6-1.1,1.2-2.2,1.8-3.3
		c0.1-0.1,0.1-0.4,0.4-0.4c-1.6,3-3.3,6-5.3,8.8c-0.1,0.1-0.2,0.2-0.2,0.3c-0.4,1.1-1.3,1.3-2.4,1.4c0,0-0.1,0-0.1,0
		c-0.9-0.2-1.3,0.2-1.7,0.9c-1.2,2.3-2.3,4.6-3,7.1c-0.4,1.3-0.8,2.5-1,3.8c-0.2,1.4-0.3,2.8-0.2,4.1c0,0,0,0.1,0,0.1
		c0.1,1.3,0.2,1.6-1.2,1.6c-3.8,0-6,3.7-6.4,4.2c0-2.4,1.7-3.9,1.7-3.9c0.2-0.2,0.4-0.4,0.6-0.6c0.3-0.3,0.6-0.5,1-0.8
		c0.6-0.4,1.3-0.5,2-0.6c0.2,0,0.5,0,0.5-0.3c0-1,0.2-2,0.4-3c0.2-1.2,0.4-2.3,0.8-3.5c0.6-2.1,1.5-4.1,2.4-6.1
		c0.6-1.3,1.4-2.4,2.1-3.7C69.9,15.2,70.2,13,70.2,12.9z"/>
	<path class="st0" d="M50,43.7c0.6-0.2,1.3-0.2,2.1-0.2c0.2,0,0.3-0.1,0.3-0.3c-0.1-0.5-0.2-1-0.4-1.5c-0.1-0.2-0.2-0.3-0.4-0.1
		c-0.7,0.5-1.2,1.1-1.7,1.8C49.6,43.6,49.7,43.7,50,43.7z M53.5,43.4c0.3,0.2-0.1,0.4,0,0.6c0.2,0.4,0,0.8,0,1.2
		c0,0.2-0.1,0.4-0.4,0.4c-0.2-0.4-0.4-0.8-0.5-1.2c-0.1-0.3-0.3-0.4-0.6-0.4c-0.8,0.1-1.7,0.2-2.5,0.3c-0.3,0-0.9,0.7-0.9,0.9
		c0,0,0,0.1,0,0.1c0,0.1,0.4,0,0.2,0.2c-0.2,0.2-0.4,0.4-0.7,0.5c-0.2,0-0.2-0.1-0.2-0.3c0-0.3,0.1-0.5,0.3-0.8
		c0.2-0.4,0.2-0.4-0.2-0.7c0,0,0-0.1,0-0.1c0.7,0,0.9-0.5,1.3-1c0.5-0.7,1.1-1.4,1.9-1.8c0.1-0.1,0.2-0.1,0.4-0.1
		c0.7-0.2,1-0.1,1.2,0.6c0.2,0.5,0.3,0.9,0.4,1.4C53.3,43.2,53.4,43.3,53.5,43.4z"/>
	<path class="st4" d="M61.2,21.6c0,0.4-0.2,0.6-0.4,0.9c-0.7,1.2-1.2,2.5-1.9,3.6c-0.2,0.4-0.4,0.8-0.6,1.2
		c-0.1,0.4-0.3,0.8-0.5,1.2c-0.1,0.3-0.3,0.5-0.2,0.8c0,0.1-0.1,0.2-0.2,0.3c-1.2,1.1-3.4,12.5-3.6,12.9c-0.1-0.1-0.2-0.1-0.1-0.2
		c0,0,2-10.7,2.5-11.7c0.4-0.7,0.7-1.4,1.1-2.1c0.5-0.8,0.9-1.7,1.4-2.6c0.7-1.2,1.2-2.5,2-3.7C60.8,22.2,61.2,21.6,61.2,21.6z"/>
	<path class="st3" d="M73.4,0.6C73.1,1,72.9,1.5,72.7,2c-0.4,0.9-0.8,1.7-1.2,2.6c-0.5,1.1-1,2.2-1.6,3.3c-0.2,0.4-1.3,0.5-1.6,0.1
		c-0.1-0.1,0-0.2,0-0.3c0.4-0.9,0.7-1.8,1.1-2.7c0.3-0.8,0.7-1.5,1-2.3c0.2-0.6,0.6-1.1,0.8-1.6c0.1-0.1,0.1-0.2,0.1-0.3
		C72,0.6,72.7,0.6,73.4,0.6z"/>
	<polygon class="st3" points="11.4,40.3 11.5,40.2 11.5,40.3 	"/>
	<path class="st4" d="M71.5,12.1c0.9-0.1,1.6,0.8,1.6,1.5c0,0.2,0,0.5-0.3,0.5c-0.2,0-0.5-0.1-0.5-0.5c0-0.3-0.2-0.5-0.3-0.8
		C71.8,12.6,71.6,12.3,71.5,12.1z"/>
	<path class="st0" d="M58.8,29c0,0.5-0.3,1-0.6,1.3c-0.1,0.1-0.2,0.1-0.3,0.1c-0.1,0-0.1-0.2-0.1-0.3c0-0.5,0.2-1,0.6-1.4
		c0.1-0.1,0.2-0.2,0.4-0.1C58.9,28.7,58.8,28.9,58.8,29z"/>
	<path class="st1" d="M70.4,14.4c-0.2,0.4-0.5,0.8-0.7,1.2c-0.7,1.2-1.5,2.4-2.1,3.7c-0.9,2-1.8,4-2.4,6.1c-0.3,1.1-0.5,2.3-0.8,3.5
		c-0.2,1-0.4,2-0.4,3c0,0.3-0.3,0.3-0.5,0.3c-0.7,0.1-1.4,0.3-2,0.6c-0.3,0.2-0.7,0.5-1,0.8c-0.2,0.2-0.4,0.4-0.6,0.6
		c-0.1-0.2-0.1-0.3,0-0.5c1-2,1.9-4,2.9-5.9c0.8-1.7,1.5-3.4,2.4-5c0.8-1.6,1.5-3.3,2.3-5c0.7-1.5,1.5-3.1,2.2-4.6
		c0.1-0.3,0.3-0.3,0.5-0.1C70.2,13,70.6,13.4,70.4,14.4z"/>
	<path class="st5" d="M44.5,35.3C44.5,35.3,44.6,35.3,44.5,35.3C44.6,35.3,44.5,35.3,44.5,35.3L44.5,35.3z"/>
</g>
</svg>
